<?xml version="1.0" encoding="UTF-8"?>
<svg xmlns="http://www.w3.org/2000/svg" viewBox="0 0 386 496" width="386" height="496">
  <defs>
    <style>
      .title { font-family: 'Segoe UI', Arial, sans-serif; font-weight: 900; font-size: 15px; fill: #0f172a; text-anchor: middle; }
      .sub { font-family: 'Segoe UI', Arial, sans-serif; font-weight: 600; font-size: 12px; fill: #2563eb; text-anchor: middle; }
      .url { font-family: 'Consolas', monospace; font-size: 11px; font-weight: bold; fill: #d97706; text-anchor: middle; }
    </style>
  </defs>

  <!-- Fondo Blanco con Bordes Redondeados y Sombra -->
  <rect width="386" height="496" rx="16" fill="#ffffff" stroke="#f59e0b" stroke-width="4" />

  <!-- Matriz QR -->
  <rect x="28" y="28" width="10" height="10" fill="#090d16" />
  <rect x="38" y="28" width="10" height="10" fill="#090d16" />
  <rect x="48" y="28" width="10" height="10" fill="#090d16" />
  <rect x="58" y="28" width="10" height="10" fill="#090d16" />
  <rect x="68" y="28" width="10" height="10" fill="#090d16" />
  <rect x="78" y="28" width="10" height="10" fill="#090d16" />
  <rect x="88" y="28" width="10" height="10" fill="#090d16" />
  <rect x="118" y="28" width="10" height="10" fill="#090d16" />
  <rect x="148" y="28" width="10" height="10" fill="#090d16" />
  <rect x="188" y="28" width="10" height="10" fill="#090d16" />
  <rect x="218" y="28" width="10" height="10" fill="#090d16" />
  <rect x="238" y="28" width="10" height="10" fill="#090d16" />
  <rect x="248" y="28" width="10" height="10" fill="#090d16" />
  <rect x="258" y="28" width="10" height="10" fill="#090d16" />
  <rect x="268" y="28" width="10" height="10" fill="#090d16" />
  <rect x="288" y="28" width="10" height="10" fill="#090d16" />
  <rect x="298" y="28" width="10" height="10" fill="#090d16" />
  <rect x="308" y="28" width="10" height="10" fill="#090d16" />
  <rect x="318" y="28" width="10" height="10" fill="#090d16" />
  <rect x="328" y="28" width="10" height="10" fill="#090d16" />
  <rect x="338" y="28" width="10" height="10" fill="#090d16" />
  <rect x="348" y="28" width="10" height="10" fill="#090d16" />
  <rect x="28" y="38" width="10" height="10" fill="#090d16" />
  <rect x="88" y="38" width="10" height="10" fill="#090d16" />
  <rect x="138" y="38" width="10" height="10" fill="#090d16" />
  <rect x="148" y="38" width="10" height="10" fill="#090d16" />
  <rect x="178" y="38" width="10" height="10" fill="#090d16" />
  <rect x="208" y="38" width="10" height="10" fill="#090d16" />
  <rect x="228" y="38" width="10" height="10" fill="#090d16" />
  <rect x="238" y="38" width="10" height="10" fill="#090d16" />
  <rect x="268" y="38" width="10" height="10" fill="#090d16" />
  <rect x="288" y="38" width="10" height="10" fill="#090d16" />
  <rect x="348" y="38" width="10" height="10" fill="#090d16" />
  <rect x="28" y="48" width="10" height="10" fill="#090d16" />
  <rect x="48" y="48" width="10" height="10" fill="#090d16" />
  <rect x="58" y="48" width="10" height="10" fill="#090d16" />
  <rect x="68" y="48" width="10" height="10" fill="#090d16" />
  <rect x="88" y="48" width="10" height="10" fill="#090d16" />
  <rect x="108" y="48" width="10" height="10" fill="#090d16" />
  <rect x="128" y="48" width="10" height="10" fill="#090d16" />
  <rect x="168" y="48" width="10" height="10" fill="#090d16" />
  <rect x="238" y="48" width="10" height="10" fill="#090d16" />
  <rect x="248" y="48" width="10" height="10" fill="#090d16" />
  <rect x="258" y="48" width="10" height="10" fill="#090d16" />
  <rect x="288" y="48" width="10" height="10" fill="#090d16" />
  <rect x="308" y="48" width="10" height="10" fill="#090d16" />
  <rect x="318" y="48" width="10" height="10" fill="#090d16" />
  <rect x="328" y="48" width="10" height="10" fill="#090d16" />
  <rect x="348" y="48" width="10" height="10" fill="#090d16" />
  <rect x="28" y="58" width="10" height="10" fill="#090d16" />
  <rect x="48" y="58" width="10" height="10" fill="#090d16" />
  <rect x="58" y="58" width="10" height="10" fill="#090d16" />
  <rect x="68" y="58" width="10" height="10" fill="#090d16" />
  <rect x="88" y="58" width="10" height="10" fill="#090d16" />
  <rect x="108" y="58" width="10" height="10" fill="#090d16" />
  <rect x="118" y="58" width="10" height="10" fill="#090d16" />
  <rect x="138" y="58" width="10" height="10" fill="#090d16" />
  <rect x="178" y="58" width="10" height="10" fill="#090d16" />
  <rect x="208" y="58" width="10" height="10" fill="#090d16" />
  <rect x="218" y="58" width="10" height="10" fill="#090d16" />
  <rect x="238" y="58" width="10" height="10" fill="#090d16" />
  <rect x="268" y="58" width="10" height="10" fill="#090d16" />
  <rect x="288" y="58" width="10" height="10" fill="#090d16" />
  <rect x="308" y="58" width="10" height="10" fill="#090d16" />
  <rect x="318" y="58" width="10" height="10" fill="#090d16" />
  <rect x="328" y="58" width="10" height="10" fill="#090d16" />
  <rect x="348" y="58" width="10" height="10" fill="#090d16" />
  <rect x="28" y="68" width="10" height="10" fill="#090d16" />
  <rect x="48" y="68" width="10" height="10" fill="#090d16" />
  <rect x="58" y="68" width="10" height="10" fill="#090d16" />
  <rect x="68" y="68" width="10" height="10" fill="#090d16" />
  <rect x="88" y="68" width="10" height="10" fill="#090d16" />
  <rect x="108" y="68" width="10" height="10" fill="#090d16" />
  <rect x="118" y="68" width="10" height="10" fill="#090d16" />
  <rect x="138" y="68" width="10" height="10" fill="#090d16" />
  <rect x="168" y="68" width="10" height="10" fill="#090d16" />
  <rect x="178" y="68" width="10" height="10" fill="#090d16" />
  <rect x="188" y="68" width="10" height="10" fill="#090d16" />
  <rect x="198" y="68" width="10" height="10" fill="#090d16" />
  <rect x="228" y="68" width="10" height="10" fill="#090d16" />
  <rect x="248" y="68" width="10" height="10" fill="#090d16" />
  <rect x="288" y="68" width="10" height="10" fill="#090d16" />
  <rect x="308" y="68" width="10" height="10" fill="#090d16" />
  <rect x="318" y="68" width="10" height="10" fill="#090d16" />
  <rect x="328" y="68" width="10" height="10" fill="#090d16" />
  <rect x="348" y="68" width="10" height="10" fill="#090d16" />
  <rect x="28" y="78" width="10" height="10" fill="#090d16" />
  <rect x="88" y="78" width="10" height="10" fill="#090d16" />
  <rect x="108" y="78" width="10" height="10" fill="#090d16" />
  <rect x="118" y="78" width="10" height="10" fill="#090d16" />
  <rect x="168" y="78" width="10" height="10" fill="#090d16" />
  <rect x="198" y="78" width="10" height="10" fill="#090d16" />
  <rect x="208" y="78" width="10" height="10" fill="#090d16" />
  <rect x="218" y="78" width="10" height="10" fill="#090d16" />
  <rect x="238" y="78" width="10" height="10" fill="#090d16" />
  <rect x="258" y="78" width="10" height="10" fill="#090d16" />
  <rect x="268" y="78" width="10" height="10" fill="#090d16" />
  <rect x="288" y="78" width="10" height="10" fill="#090d16" />
  <rect x="348" y="78" width="10" height="10" fill="#090d16" />
  <rect x="28" y="88" width="10" height="10" fill="#090d16" />
  <rect x="38" y="88" width="10" height="10" fill="#090d16" />
  <rect x="48" y="88" width="10" height="10" fill="#090d16" />
  <rect x="58" y="88" width="10" height="10" fill="#090d16" />
  <rect x="68" y="88" width="10" height="10" fill="#090d16" />
  <rect x="78" y="88" width="10" height="10" fill="#090d16" />
  <rect x="88" y="88" width="10" height="10" fill="#090d16" />
  <rect x="108" y="88" width="10" height="10" fill="#090d16" />
  <rect x="128" y="88" width="10" height="10" fill="#090d16" />
  <rect x="148" y="88" width="10" height="10" fill="#090d16" />
  <rect x="168" y="88" width="10" height="10" fill="#090d16" />
  <rect x="188" y="88" width="10" height="10" fill="#090d16" />
  <rect x="208" y="88" width="10" height="10" fill="#090d16" />
  <rect x="228" y="88" width="10" height="10" fill="#090d16" />
  <rect x="248" y="88" width="10" height="10" fill="#090d16" />
  <rect x="268" y="88" width="10" height="10" fill="#090d16" />
  <rect x="288" y="88" width="10" height="10" fill="#090d16" />
  <rect x="298" y="88" width="10" height="10" fill="#090d16" />
  <rect x="308" y="88" width="10" height="10" fill="#090d16" />
  <rect x="318" y="88" width="10" height="10" fill="#090d16" />
  <rect x="328" y="88" width="10" height="10" fill="#090d16" />
  <rect x="338" y="88" width="10" height="10" fill="#090d16" />
  <rect x="348" y="88" width="10" height="10" fill="#090d16" />
  <rect x="108" y="98" width="10" height="10" fill="#090d16" />
  <rect x="118" y="98" width="10" height="10" fill="#090d16" />
  <rect x="138" y="98" width="10" height="10" fill="#090d16" />
  <rect x="168" y="98" width="10" height="10" fill="#090d16" />
  <rect x="188" y="98" width="10" height="10" fill="#090d16" />
  <rect x="208" y="98" width="10" height="10" fill="#090d16" />
  <rect x="218" y="98" width="10" height="10" fill="#090d16" />
  <rect x="228" y="98" width="10" height="10" fill="#090d16" />
  <rect x="238" y="98" width="10" height="10" fill="#090d16" />
  <rect x="258" y="98" width="10" height="10" fill="#090d16" />
  <rect x="28" y="108" width="10" height="10" fill="#090d16" />
  <rect x="48" y="108" width="10" height="10" fill="#090d16" />
  <rect x="58" y="108" width="10" height="10" fill="#090d16" />
  <rect x="68" y="108" width="10" height="10" fill="#090d16" />
  <rect x="78" y="108" width="10" height="10" fill="#090d16" />
  <rect x="88" y="108" width="10" height="10" fill="#090d16" />
  <rect x="118" y="108" width="10" height="10" fill="#090d16" />
  <rect x="128" y="108" width="10" height="10" fill="#090d16" />
  <rect x="138" y="108" width="10" height="10" fill="#090d16" />
  <rect x="158" y="108" width="10" height="10" fill="#090d16" />
  <rect x="168" y="108" width="10" height="10" fill="#090d16" />
  <rect x="188" y="108" width="10" height="10" fill="#090d16" />
  <rect x="198" y="108" width="10" height="10" fill="#090d16" />
  <rect x="208" y="108" width="10" height="10" fill="#090d16" />
  <rect x="218" y="108" width="10" height="10" fill="#090d16" />
  <rect x="228" y="108" width="10" height="10" fill="#090d16" />
  <rect x="258" y="108" width="10" height="10" fill="#090d16" />
  <rect x="288" y="108" width="10" height="10" fill="#090d16" />
  <rect x="298" y="108" width="10" height="10" fill="#090d16" />
  <rect x="308" y="108" width="10" height="10" fill="#090d16" />
  <rect x="318" y="108" width="10" height="10" fill="#090d16" />
  <rect x="328" y="108" width="10" height="10" fill="#090d16" />
  <rect x="48" y="118" width="10" height="10" fill="#090d16" />
  <rect x="58" y="118" width="10" height="10" fill="#090d16" />
  <rect x="98" y="118" width="10" height="10" fill="#090d16" />
  <rect x="108" y="118" width="10" height="10" fill="#090d16" />
  <rect x="118" y="118" width="10" height="10" fill="#090d16" />
  <rect x="128" y="118" width="10" height="10" fill="#090d16" />
  <rect x="138" y="118" width="10" height="10" fill="#090d16" />
  <rect x="158" y="118" width="10" height="10" fill="#090d16" />
  <rect x="188" y="118" width="10" height="10" fill="#090d16" />
  <rect x="198" y="118" width="10" height="10" fill="#090d16" />
  <rect x="218" y="118" width="10" height="10" fill="#090d16" />
  <rect x="258" y="118" width="10" height="10" fill="#090d16" />
  <rect x="268" y="118" width="10" height="10" fill="#090d16" />
  <rect x="278" y="118" width="10" height="10" fill="#090d16" />
  <rect x="288" y="118" width="10" height="10" fill="#090d16" />
  <rect x="298" y="118" width="10" height="10" fill="#090d16" />
  <rect x="318" y="118" width="10" height="10" fill="#090d16" />
  <rect x="328" y="118" width="10" height="10" fill="#090d16" />
  <rect x="348" y="118" width="10" height="10" fill="#090d16" />
  <rect x="28" y="128" width="10" height="10" fill="#090d16" />
  <rect x="48" y="128" width="10" height="10" fill="#090d16" />
  <rect x="68" y="128" width="10" height="10" fill="#090d16" />
  <rect x="78" y="128" width="10" height="10" fill="#090d16" />
  <rect x="88" y="128" width="10" height="10" fill="#090d16" />
  <rect x="108" y="128" width="10" height="10" fill="#090d16" />
  <rect x="148" y="128" width="10" height="10" fill="#090d16" />
  <rect x="158" y="128" width="10" height="10" fill="#090d16" />
  <rect x="168" y="128" width="10" height="10" fill="#090d16" />
  <rect x="178" y="128" width="10" height="10" fill="#090d16" />
  <rect x="188" y="128" width="10" height="10" fill="#090d16" />
  <rect x="198" y="128" width="10" height="10" fill="#090d16" />
  <rect x="248" y="128" width="10" height="10" fill="#090d16" />
  <rect x="278" y="128" width="10" height="10" fill="#090d16" />
  <rect x="288" y="128" width="10" height="10" fill="#090d16" />
  <rect x="308" y="128" width="10" height="10" fill="#090d16" />
  <rect x="328" y="128" width="10" height="10" fill="#090d16" />
  <rect x="338" y="128" width="10" height="10" fill="#090d16" />
  <rect x="48" y="138" width="10" height="10" fill="#090d16" />
  <rect x="58" y="138" width="10" height="10" fill="#090d16" />
  <rect x="68" y="138" width="10" height="10" fill="#090d16" />
  <rect x="78" y="138" width="10" height="10" fill="#090d16" />
  <rect x="98" y="138" width="10" height="10" fill="#090d16" />
  <rect x="108" y="138" width="10" height="10" fill="#090d16" />
  <rect x="128" y="138" width="10" height="10" fill="#090d16" />
  <rect x="138" y="138" width="10" height="10" fill="#090d16" />
  <rect x="158" y="138" width="10" height="10" fill="#090d16" />
  <rect x="198" y="138" width="10" height="10" fill="#090d16" />
  <rect x="208" y="138" width="10" height="10" fill="#090d16" />
  <rect x="218" y="138" width="10" height="10" fill="#090d16" />
  <rect x="268" y="138" width="10" height="10" fill="#090d16" />
  <rect x="288" y="138" width="10" height="10" fill="#090d16" />
  <rect x="308" y="138" width="10" height="10" fill="#090d16" />
  <rect x="318" y="138" width="10" height="10" fill="#090d16" />
  <rect x="328" y="138" width="10" height="10" fill="#090d16" />
  <rect x="338" y="138" width="10" height="10" fill="#090d16" />
  <rect x="348" y="138" width="10" height="10" fill="#090d16" />
  <rect x="38" y="148" width="10" height="10" fill="#090d16" />
  <rect x="58" y="148" width="10" height="10" fill="#090d16" />
  <rect x="78" y="148" width="10" height="10" fill="#090d16" />
  <rect x="88" y="148" width="10" height="10" fill="#090d16" />
  <rect x="108" y="148" width="10" height="10" fill="#090d16" />
  <rect x="128" y="148" width="10" height="10" fill="#090d16" />
  <rect x="138" y="148" width="10" height="10" fill="#090d16" />
  <rect x="168" y="148" width="10" height="10" fill="#090d16" />
  <rect x="178" y="148" width="10" height="10" fill="#090d16" />
  <rect x="188" y="148" width="10" height="10" fill="#090d16" />
  <rect x="228" y="148" width="10" height="10" fill="#090d16" />
  <rect x="238" y="148" width="10" height="10" fill="#090d16" />
  <rect x="248" y="148" width="10" height="10" fill="#090d16" />
  <rect x="268" y="148" width="10" height="10" fill="#090d16" />
  <rect x="278" y="148" width="10" height="10" fill="#090d16" />
  <rect x="298" y="148" width="10" height="10" fill="#090d16" />
  <rect x="308" y="148" width="10" height="10" fill="#090d16" />
  <rect x="318" y="148" width="10" height="10" fill="#090d16" />
  <rect x="338" y="148" width="10" height="10" fill="#090d16" />
  <rect x="348" y="148" width="10" height="10" fill="#090d16" />
  <rect x="28" y="158" width="10" height="10" fill="#090d16" />
  <rect x="38" y="158" width="10" height="10" fill="#090d16" />
  <rect x="48" y="158" width="10" height="10" fill="#090d16" />
  <rect x="78" y="158" width="10" height="10" fill="#090d16" />
  <rect x="98" y="158" width="10" height="10" fill="#090d16" />
  <rect x="128" y="158" width="10" height="10" fill="#090d16" />
  <rect x="138" y="158" width="10" height="10" fill="#090d16" />
  <rect x="148" y="158" width="10" height="10" fill="#090d16" />
  <rect x="178" y="158" width="10" height="10" fill="#090d16" />
  <rect x="198" y="158" width="10" height="10" fill="#090d16" />
  <rect x="208" y="158" width="10" height="10" fill="#090d16" />
  <rect x="268" y="158" width="10" height="10" fill="#090d16" />
  <rect x="288" y="158" width="10" height="10" fill="#090d16" />
  <rect x="298" y="158" width="10" height="10" fill="#090d16" />
  <rect x="318" y="158" width="10" height="10" fill="#090d16" />
  <rect x="328" y="158" width="10" height="10" fill="#090d16" />
  <rect x="338" y="158" width="10" height="10" fill="#090d16" />
  <rect x="348" y="158" width="10" height="10" fill="#090d16" />
  <rect x="58" y="168" width="10" height="10" fill="#090d16" />
  <rect x="88" y="168" width="10" height="10" fill="#090d16" />
  <rect x="98" y="168" width="10" height="10" fill="#090d16" />
  <rect x="138" y="168" width="10" height="10" fill="#090d16" />
  <rect x="158" y="168" width="10" height="10" fill="#090d16" />
  <rect x="168" y="168" width="10" height="10" fill="#090d16" />
  <rect x="178" y="168" width="10" height="10" fill="#090d16" />
  <rect x="188" y="168" width="10" height="10" fill="#090d16" />
  <rect x="208" y="168" width="10" height="10" fill="#090d16" />
  <rect x="228" y="168" width="10" height="10" fill="#090d16" />
  <rect x="248" y="168" width="10" height="10" fill="#090d16" />
  <rect x="268" y="168" width="10" height="10" fill="#090d16" />
  <rect x="308" y="168" width="10" height="10" fill="#090d16" />
  <rect x="328" y="168" width="10" height="10" fill="#090d16" />
  <rect x="338" y="168" width="10" height="10" fill="#090d16" />
  <rect x="48" y="178" width="10" height="10" fill="#090d16" />
  <rect x="58" y="178" width="10" height="10" fill="#090d16" />
  <rect x="68" y="178" width="10" height="10" fill="#090d16" />
  <rect x="78" y="178" width="10" height="10" fill="#090d16" />
  <rect x="98" y="178" width="10" height="10" fill="#090d16" />
  <rect x="108" y="178" width="10" height="10" fill="#090d16" />
  <rect x="118" y="178" width="10" height="10" fill="#090d16" />
  <rect x="138" y="178" width="10" height="10" fill="#090d16" />
  <rect x="148" y="178" width="10" height="10" fill="#090d16" />
  <rect x="168" y="178" width="10" height="10" fill="#090d16" />
  <rect x="178" y="178" width="10" height="10" fill="#090d16" />
  <rect x="208" y="178" width="10" height="10" fill="#090d16" />
  <rect x="238" y="178" width="10" height="10" fill="#090d16" />
  <rect x="278" y="178" width="10" height="10" fill="#090d16" />
  <rect x="298" y="178" width="10" height="10" fill="#090d16" />
  <rect x="318" y="178" width="10" height="10" fill="#090d16" />
  <rect x="328" y="178" width="10" height="10" fill="#090d16" />
  <rect x="38" y="188" width="10" height="10" fill="#090d16" />
  <rect x="68" y="188" width="10" height="10" fill="#090d16" />
  <rect x="88" y="188" width="10" height="10" fill="#090d16" />
  <rect x="128" y="188" width="10" height="10" fill="#090d16" />
  <rect x="138" y="188" width="10" height="10" fill="#090d16" />
  <rect x="168" y="188" width="10" height="10" fill="#090d16" />
  <rect x="178" y="188" width="10" height="10" fill="#090d16" />
  <rect x="198" y="188" width="10" height="10" fill="#090d16" />
  <rect x="208" y="188" width="10" height="10" fill="#090d16" />
  <rect x="228" y="188" width="10" height="10" fill="#090d16" />
  <rect x="258" y="188" width="10" height="10" fill="#090d16" />
  <rect x="298" y="188" width="10" height="10" fill="#090d16" />
  <rect x="308" y="188" width="10" height="10" fill="#090d16" />
  <rect x="348" y="188" width="10" height="10" fill="#090d16" />
  <rect x="28" y="198" width="10" height="10" fill="#090d16" />
  <rect x="68" y="198" width="10" height="10" fill="#090d16" />
  <rect x="98" y="198" width="10" height="10" fill="#090d16" />
  <rect x="108" y="198" width="10" height="10" fill="#090d16" />
  <rect x="118" y="198" width="10" height="10" fill="#090d16" />
  <rect x="128" y="198" width="10" height="10" fill="#090d16" />
  <rect x="148" y="198" width="10" height="10" fill="#090d16" />
  <rect x="168" y="198" width="10" height="10" fill="#090d16" />
  <rect x="188" y="198" width="10" height="10" fill="#090d16" />
  <rect x="218" y="198" width="10" height="10" fill="#090d16" />
  <rect x="238" y="198" width="10" height="10" fill="#090d16" />
  <rect x="248" y="198" width="10" height="10" fill="#090d16" />
  <rect x="258" y="198" width="10" height="10" fill="#090d16" />
  <rect x="268" y="198" width="10" height="10" fill="#090d16" />
  <rect x="278" y="198" width="10" height="10" fill="#090d16" />
  <rect x="288" y="198" width="10" height="10" fill="#090d16" />
  <rect x="298" y="198" width="10" height="10" fill="#090d16" />
  <rect x="318" y="198" width="10" height="10" fill="#090d16" />
  <rect x="328" y="198" width="10" height="10" fill="#090d16" />
  <rect x="338" y="198" width="10" height="10" fill="#090d16" />
  <rect x="38" y="208" width="10" height="10" fill="#090d16" />
  <rect x="48" y="208" width="10" height="10" fill="#090d16" />
  <rect x="68" y="208" width="10" height="10" fill="#090d16" />
  <rect x="78" y="208" width="10" height="10" fill="#090d16" />
  <rect x="88" y="208" width="10" height="10" fill="#090d16" />
  <rect x="98" y="208" width="10" height="10" fill="#090d16" />
  <rect x="118" y="208" width="10" height="10" fill="#090d16" />
  <rect x="128" y="208" width="10" height="10" fill="#090d16" />
  <rect x="138" y="208" width="10" height="10" fill="#090d16" />
  <rect x="148" y="208" width="10" height="10" fill="#090d16" />
  <rect x="168" y="208" width="10" height="10" fill="#090d16" />
  <rect x="178" y="208" width="10" height="10" fill="#090d16" />
  <rect x="188" y="208" width="10" height="10" fill="#090d16" />
  <rect x="208" y="208" width="10" height="10" fill="#090d16" />
  <rect x="238" y="208" width="10" height="10" fill="#090d16" />
  <rect x="268" y="208" width="10" height="10" fill="#090d16" />
  <rect x="288" y="208" width="10" height="10" fill="#090d16" />
  <rect x="308" y="208" width="10" height="10" fill="#090d16" />
  <rect x="328" y="208" width="10" height="10" fill="#090d16" />
  <rect x="338" y="208" width="10" height="10" fill="#090d16" />
  <rect x="28" y="218" width="10" height="10" fill="#090d16" />
  <rect x="78" y="218" width="10" height="10" fill="#090d16" />
  <rect x="98" y="218" width="10" height="10" fill="#090d16" />
  <rect x="108" y="218" width="10" height="10" fill="#090d16" />
  <rect x="118" y="218" width="10" height="10" fill="#090d16" />
  <rect x="138" y="218" width="10" height="10" fill="#090d16" />
  <rect x="148" y="218" width="10" height="10" fill="#090d16" />
  <rect x="158" y="218" width="10" height="10" fill="#090d16" />
  <rect x="188" y="218" width="10" height="10" fill="#090d16" />
  <rect x="218" y="218" width="10" height="10" fill="#090d16" />
  <rect x="238" y="218" width="10" height="10" fill="#090d16" />
  <rect x="248" y="218" width="10" height="10" fill="#090d16" />
  <rect x="258" y="218" width="10" height="10" fill="#090d16" />
  <rect x="308" y="218" width="10" height="10" fill="#090d16" />
  <rect x="318" y="218" width="10" height="10" fill="#090d16" />
  <rect x="328" y="218" width="10" height="10" fill="#090d16" />
  <rect x="348" y="218" width="10" height="10" fill="#090d16" />
  <rect x="38" y="228" width="10" height="10" fill="#090d16" />
  <rect x="48" y="228" width="10" height="10" fill="#090d16" />
  <rect x="58" y="228" width="10" height="10" fill="#090d16" />
  <rect x="68" y="228" width="10" height="10" fill="#090d16" />
  <rect x="78" y="228" width="10" height="10" fill="#090d16" />
  <rect x="88" y="228" width="10" height="10" fill="#090d16" />
  <rect x="98" y="228" width="10" height="10" fill="#090d16" />
  <rect x="118" y="228" width="10" height="10" fill="#090d16" />
  <rect x="148" y="228" width="10" height="10" fill="#090d16" />
  <rect x="158" y="228" width="10" height="10" fill="#090d16" />
  <rect x="208" y="228" width="10" height="10" fill="#090d16" />
  <rect x="238" y="228" width="10" height="10" fill="#090d16" />
  <rect x="258" y="228" width="10" height="10" fill="#090d16" />
  <rect x="268" y="228" width="10" height="10" fill="#090d16" />
  <rect x="278" y="228" width="10" height="10" fill="#090d16" />
  <rect x="308" y="228" width="10" height="10" fill="#090d16" />
  <rect x="318" y="228" width="10" height="10" fill="#090d16" />
  <rect x="28" y="238" width="10" height="10" fill="#090d16" />
  <rect x="48" y="238" width="10" height="10" fill="#090d16" />
  <rect x="58" y="238" width="10" height="10" fill="#090d16" />
  <rect x="78" y="238" width="10" height="10" fill="#090d16" />
  <rect x="98" y="238" width="10" height="10" fill="#090d16" />
  <rect x="108" y="238" width="10" height="10" fill="#090d16" />
  <rect x="148" y="238" width="10" height="10" fill="#090d16" />
  <rect x="168" y="238" width="10" height="10" fill="#090d16" />
  <rect x="178" y="238" width="10" height="10" fill="#090d16" />
  <rect x="188" y="238" width="10" height="10" fill="#090d16" />
  <rect x="228" y="238" width="10" height="10" fill="#090d16" />
  <rect x="238" y="238" width="10" height="10" fill="#090d16" />
  <rect x="248" y="238" width="10" height="10" fill="#090d16" />
  <rect x="258" y="238" width="10" height="10" fill="#090d16" />
  <rect x="278" y="238" width="10" height="10" fill="#090d16" />
  <rect x="288" y="238" width="10" height="10" fill="#090d16" />
  <rect x="318" y="238" width="10" height="10" fill="#090d16" />
  <rect x="348" y="238" width="10" height="10" fill="#090d16" />
  <rect x="28" y="248" width="10" height="10" fill="#090d16" />
  <rect x="58" y="248" width="10" height="10" fill="#090d16" />
  <rect x="78" y="248" width="10" height="10" fill="#090d16" />
  <rect x="88" y="248" width="10" height="10" fill="#090d16" />
  <rect x="108" y="248" width="10" height="10" fill="#090d16" />
  <rect x="118" y="248" width="10" height="10" fill="#090d16" />
  <rect x="128" y="248" width="10" height="10" fill="#090d16" />
  <rect x="138" y="248" width="10" height="10" fill="#090d16" />
  <rect x="208" y="248" width="10" height="10" fill="#090d16" />
  <rect x="218" y="248" width="10" height="10" fill="#090d16" />
  <rect x="238" y="248" width="10" height="10" fill="#090d16" />
  <rect x="248" y="248" width="10" height="10" fill="#090d16" />
  <rect x="288" y="248" width="10" height="10" fill="#090d16" />
  <rect x="308" y="248" width="10" height="10" fill="#090d16" />
  <rect x="318" y="248" width="10" height="10" fill="#090d16" />
  <rect x="338" y="248" width="10" height="10" fill="#090d16" />
  <rect x="28" y="258" width="10" height="10" fill="#090d16" />
  <rect x="48" y="258" width="10" height="10" fill="#090d16" />
  <rect x="68" y="258" width="10" height="10" fill="#090d16" />
  <rect x="78" y="258" width="10" height="10" fill="#090d16" />
  <rect x="98" y="258" width="10" height="10" fill="#090d16" />
  <rect x="108" y="258" width="10" height="10" fill="#090d16" />
  <rect x="128" y="258" width="10" height="10" fill="#090d16" />
  <rect x="138" y="258" width="10" height="10" fill="#090d16" />
  <rect x="158" y="258" width="10" height="10" fill="#090d16" />
  <rect x="168" y="258" width="10" height="10" fill="#090d16" />
  <rect x="188" y="258" width="10" height="10" fill="#090d16" />
  <rect x="208" y="258" width="10" height="10" fill="#090d16" />
  <rect x="218" y="258" width="10" height="10" fill="#090d16" />
  <rect x="228" y="258" width="10" height="10" fill="#090d16" />
  <rect x="238" y="258" width="10" height="10" fill="#090d16" />
  <rect x="278" y="258" width="10" height="10" fill="#090d16" />
  <rect x="308" y="258" width="10" height="10" fill="#090d16" />
  <rect x="318" y="258" width="10" height="10" fill="#090d16" />
  <rect x="328" y="258" width="10" height="10" fill="#090d16" />
  <rect x="338" y="258" width="10" height="10" fill="#090d16" />
  <rect x="348" y="258" width="10" height="10" fill="#090d16" />
  <rect x="28" y="268" width="10" height="10" fill="#090d16" />
  <rect x="58" y="268" width="10" height="10" fill="#090d16" />
  <rect x="68" y="268" width="10" height="10" fill="#090d16" />
  <rect x="88" y="268" width="10" height="10" fill="#090d16" />
  <rect x="98" y="268" width="10" height="10" fill="#090d16" />
  <rect x="198" y="268" width="10" height="10" fill="#090d16" />
  <rect x="208" y="268" width="10" height="10" fill="#090d16" />
  <rect x="218" y="268" width="10" height="10" fill="#090d16" />
  <rect x="228" y="268" width="10" height="10" fill="#090d16" />
  <rect x="258" y="268" width="10" height="10" fill="#090d16" />
  <rect x="268" y="268" width="10" height="10" fill="#090d16" />
  <rect x="278" y="268" width="10" height="10" fill="#090d16" />
  <rect x="288" y="268" width="10" height="10" fill="#090d16" />
  <rect x="298" y="268" width="10" height="10" fill="#090d16" />
  <rect x="308" y="268" width="10" height="10" fill="#090d16" />
  <rect x="348" y="268" width="10" height="10" fill="#090d16" />
  <rect x="108" y="278" width="10" height="10" fill="#090d16" />
  <rect x="118" y="278" width="10" height="10" fill="#090d16" />
  <rect x="138" y="278" width="10" height="10" fill="#090d16" />
  <rect x="158" y="278" width="10" height="10" fill="#090d16" />
  <rect x="168" y="278" width="10" height="10" fill="#090d16" />
  <rect x="198" y="278" width="10" height="10" fill="#090d16" />
  <rect x="218" y="278" width="10" height="10" fill="#090d16" />
  <rect x="248" y="278" width="10" height="10" fill="#090d16" />
  <rect x="268" y="278" width="10" height="10" fill="#090d16" />
  <rect x="308" y="278" width="10" height="10" fill="#090d16" />
  <rect x="328" y="278" width="10" height="10" fill="#090d16" />
  <rect x="338" y="278" width="10" height="10" fill="#090d16" />
  <rect x="348" y="278" width="10" height="10" fill="#090d16" />
  <rect x="28" y="288" width="10" height="10" fill="#090d16" />
  <rect x="38" y="288" width="10" height="10" fill="#090d16" />
  <rect x="48" y="288" width="10" height="10" fill="#090d16" />
  <rect x="58" y="288" width="10" height="10" fill="#090d16" />
  <rect x="68" y="288" width="10" height="10" fill="#090d16" />
  <rect x="78" y="288" width="10" height="10" fill="#090d16" />
  <rect x="88" y="288" width="10" height="10" fill="#090d16" />
  <rect x="118" y="288" width="10" height="10" fill="#090d16" />
  <rect x="128" y="288" width="10" height="10" fill="#090d16" />
  <rect x="158" y="288" width="10" height="10" fill="#090d16" />
  <rect x="168" y="288" width="10" height="10" fill="#090d16" />
  <rect x="178" y="288" width="10" height="10" fill="#090d16" />
  <rect x="198" y="288" width="10" height="10" fill="#090d16" />
  <rect x="248" y="288" width="10" height="10" fill="#090d16" />
  <rect x="258" y="288" width="10" height="10" fill="#090d16" />
  <rect x="268" y="288" width="10" height="10" fill="#090d16" />
  <rect x="288" y="288" width="10" height="10" fill="#090d16" />
  <rect x="308" y="288" width="10" height="10" fill="#090d16" />
  <rect x="328" y="288" width="10" height="10" fill="#090d16" />
  <rect x="338" y="288" width="10" height="10" fill="#090d16" />
  <rect x="28" y="298" width="10" height="10" fill="#090d16" />
  <rect x="88" y="298" width="10" height="10" fill="#090d16" />
  <rect x="108" y="298" width="10" height="10" fill="#090d16" />
  <rect x="118" y="298" width="10" height="10" fill="#090d16" />
  <rect x="138" y="298" width="10" height="10" fill="#090d16" />
  <rect x="148" y="298" width="10" height="10" fill="#090d16" />
  <rect x="158" y="298" width="10" height="10" fill="#090d16" />
  <rect x="178" y="298" width="10" height="10" fill="#090d16" />
  <rect x="198" y="298" width="10" height="10" fill="#090d16" />
  <rect x="208" y="298" width="10" height="10" fill="#090d16" />
  <rect x="218" y="298" width="10" height="10" fill="#090d16" />
  <rect x="228" y="298" width="10" height="10" fill="#090d16" />
  <rect x="268" y="298" width="10" height="10" fill="#090d16" />
  <rect x="308" y="298" width="10" height="10" fill="#090d16" />
  <rect x="328" y="298" width="10" height="10" fill="#090d16" />
  <rect x="338" y="298" width="10" height="10" fill="#090d16" />
  <rect x="28" y="308" width="10" height="10" fill="#090d16" />
  <rect x="48" y="308" width="10" height="10" fill="#090d16" />
  <rect x="58" y="308" width="10" height="10" fill="#090d16" />
  <rect x="68" y="308" width="10" height="10" fill="#090d16" />
  <rect x="88" y="308" width="10" height="10" fill="#090d16" />
  <rect x="108" y="308" width="10" height="10" fill="#090d16" />
  <rect x="138" y="308" width="10" height="10" fill="#090d16" />
  <rect x="168" y="308" width="10" height="10" fill="#090d16" />
  <rect x="178" y="308" width="10" height="10" fill="#090d16" />
  <rect x="188" y="308" width="10" height="10" fill="#090d16" />
  <rect x="218" y="308" width="10" height="10" fill="#090d16" />
  <rect x="228" y="308" width="10" height="10" fill="#090d16" />
  <rect x="238" y="308" width="10" height="10" fill="#090d16" />
  <rect x="248" y="308" width="10" height="10" fill="#090d16" />
  <rect x="268" y="308" width="10" height="10" fill="#090d16" />
  <rect x="278" y="308" width="10" height="10" fill="#090d16" />
  <rect x="288" y="308" width="10" height="10" fill="#090d16" />
  <rect x="298" y="308" width="10" height="10" fill="#090d16" />
  <rect x="308" y="308" width="10" height="10" fill="#090d16" />
  <rect x="318" y="308" width="10" height="10" fill="#090d16" />
  <rect x="28" y="318" width="10" height="10" fill="#090d16" />
  <rect x="48" y="318" width="10" height="10" fill="#090d16" />
  <rect x="58" y="318" width="10" height="10" fill="#090d16" />
  <rect x="68" y="318" width="10" height="10" fill="#090d16" />
  <rect x="88" y="318" width="10" height="10" fill="#090d16" />
  <rect x="108" y="318" width="10" height="10" fill="#090d16" />
  <rect x="118" y="318" width="10" height="10" fill="#090d16" />
  <rect x="138" y="318" width="10" height="10" fill="#090d16" />
  <rect x="148" y="318" width="10" height="10" fill="#090d16" />
  <rect x="178" y="318" width="10" height="10" fill="#090d16" />
  <rect x="198" y="318" width="10" height="10" fill="#090d16" />
  <rect x="208" y="318" width="10" height="10" fill="#090d16" />
  <rect x="238" y="318" width="10" height="10" fill="#090d16" />
  <rect x="298" y="318" width="10" height="10" fill="#090d16" />
  <rect x="308" y="318" width="10" height="10" fill="#090d16" />
  <rect x="348" y="318" width="10" height="10" fill="#090d16" />
  <rect x="28" y="328" width="10" height="10" fill="#090d16" />
  <rect x="48" y="328" width="10" height="10" fill="#090d16" />
  <rect x="58" y="328" width="10" height="10" fill="#090d16" />
  <rect x="68" y="328" width="10" height="10" fill="#090d16" />
  <rect x="88" y="328" width="10" height="10" fill="#090d16" />
  <rect x="108" y="328" width="10" height="10" fill="#090d16" />
  <rect x="138" y="328" width="10" height="10" fill="#090d16" />
  <rect x="158" y="328" width="10" height="10" fill="#090d16" />
  <rect x="178" y="328" width="10" height="10" fill="#090d16" />
  <rect x="188" y="328" width="10" height="10" fill="#090d16" />
  <rect x="208" y="328" width="10" height="10" fill="#090d16" />
  <rect x="228" y="328" width="10" height="10" fill="#090d16" />
  <rect x="238" y="328" width="10" height="10" fill="#090d16" />
  <rect x="268" y="328" width="10" height="10" fill="#090d16" />
  <rect x="278" y="328" width="10" height="10" fill="#090d16" />
  <rect x="288" y="328" width="10" height="10" fill="#090d16" />
  <rect x="298" y="328" width="10" height="10" fill="#090d16" />
  <rect x="28" y="338" width="10" height="10" fill="#090d16" />
  <rect x="88" y="338" width="10" height="10" fill="#090d16" />
  <rect x="148" y="338" width="10" height="10" fill="#090d16" />
  <rect x="158" y="338" width="10" height="10" fill="#090d16" />
  <rect x="168" y="338" width="10" height="10" fill="#090d16" />
  <rect x="178" y="338" width="10" height="10" fill="#090d16" />
  <rect x="208" y="338" width="10" height="10" fill="#090d16" />
  <rect x="238" y="338" width="10" height="10" fill="#090d16" />
  <rect x="278" y="338" width="10" height="10" fill="#090d16" />
  <rect x="298" y="338" width="10" height="10" fill="#090d16" />
  <rect x="308" y="338" width="10" height="10" fill="#090d16" />
  <rect x="318" y="338" width="10" height="10" fill="#090d16" />
  <rect x="328" y="338" width="10" height="10" fill="#090d16" />
  <rect x="28" y="348" width="10" height="10" fill="#090d16" />
  <rect x="38" y="348" width="10" height="10" fill="#090d16" />
  <rect x="48" y="348" width="10" height="10" fill="#090d16" />
  <rect x="58" y="348" width="10" height="10" fill="#090d16" />
  <rect x="68" y="348" width="10" height="10" fill="#090d16" />
  <rect x="78" y="348" width="10" height="10" fill="#090d16" />
  <rect x="88" y="348" width="10" height="10" fill="#090d16" />
  <rect x="108" y="348" width="10" height="10" fill="#090d16" />
  <rect x="128" y="348" width="10" height="10" fill="#090d16" />
  <rect x="158" y="348" width="10" height="10" fill="#090d16" />
  <rect x="178" y="348" width="10" height="10" fill="#090d16" />
  <rect x="188" y="348" width="10" height="10" fill="#090d16" />
  <rect x="198" y="348" width="10" height="10" fill="#090d16" />
  <rect x="208" y="348" width="10" height="10" fill="#090d16" />
  <rect x="258" y="348" width="10" height="10" fill="#090d16" />
  <rect x="268" y="348" width="10" height="10" fill="#090d16" />
  <rect x="298" y="348" width="10" height="10" fill="#090d16" />
  <rect x="308" y="348" width="10" height="10" fill="#090d16" />
  <rect x="338" y="348" width="10" height="10" fill="#090d16" />

  <!-- Textos Informativos Inferiores -->
  <text x="193" y="412" class="title">🏢 CREAR DOJOS & GENERAR CLAVES</text>
  <text x="193" y="434" class="sub">Escanea con la cámara para crear tu Dojo</text>
  <rect x="14" y="446" width="358" height="32" rx="8" fill="#f8fafc" stroke="#cbd5e1" stroke-width="1.5" />
  <text x="193" y="467" class="url">http://192.168.40.229:8080/crear_dojos.html</text>
</svg>